<svg xmlns="http://www.w3.org/2000/svg" viewBox="0 0 192.34 309.1"><defs><style>.a{fill:#fff;}</style></defs><title>Asset 3</title><path class="a" d="M109.32,297.1c-9.82,0-19.7.36-29.51-.08a71.24,71.24,0,0,1-67.49-70.93c0-4.74,0-9.49,0-14.23,0-42.73-.23-85.46,0-128.18.18-33.89,24.06-63.56,57.46-70.29C81.65,11,94.46,12.1,106.49,12.1c16,0,31,4,44.13,13.32a71.75,71.75,0,0,1,28.54,44.81c1.36,7.08,1.16,14.26,1.16,21.43V223c0,11.22-1.59,22.16-6.34,32.45a70.92,70.92,0,0,1-64.66,41.7c-7.72.07-7.74,12.07,0,12,40.22-.37,76-30.21,82-70.31,1.14-7.61,1-15.17,1-22.82V102.35c0-6.31,0-12.62,0-18.92A83.38,83.38,0,0,0,177,35.21,84.22,84.22,0,0,0,130,2.73C116.32-.8,102,.1,88,.1,71.09.1,55,3.25,40.38,12.15A84.5,84.5,0,0,0,4.7,56.6C-1.77,75.4.32,96.94.32,116.54v82.37c0,21.66-1.37,43,8.26,63.15a83.22,83.22,0,0,0,40,39.34c15,6.82,30.15,7.7,46.26,7.7h14.5C117,309.1,117.06,297.1,109.32,297.1Z"/><path class="a" d="M91.37,51.6v45c0,7.66,11.91,7.67,11.91,0v-45c0-7.66-11.91-7.67-11.91,0Z"/></svg>
