<svg xmlns="http://www.w3.org/2000/svg" viewBox="0 0 436 142.5"><style>.a{fill:#fff;}</style><path class="a" d="M47.22,78l5.43-2.88Q58,82.54,64.33,92.89l-5.87,3.18-.88-1.55q-.44-.81-2.06-3.62-24.6.59-35.54,1.85l-2.72-6.51Q25.63,82.32,40.9,69.6,26.65,70,20.41,70.94l-2.86-6.36q10.5-4.81,22.32-17.08H7v95H0V7.5H55v40H40.31l6,3.62q-9.4,7.54-18.5,13.9l19.09-.74q4.92-4.44,7.93-7.76L61,60.21A410.75,410.75,0,0,1,29,86.39q11.38-.07,23.13-.74-1.1-1.77-3.23-5Q47.66,78.77,47.22,78ZM8,13.5v11H48v-11Zm0,28H48v-11H8Zm41.13,56h7.18q.51,19.63-5.35,27.62Q45.4,134,26.86,141.45a34.57,34.57,0,0,0-4.76-5.79q21.39-8.35,24.62-18.17H23v-19h7v13H48.32A88.26,88.26,0,0,0,49.13,97.5ZM93.87,77.27l5.37-2.87Q104.45,81.53,111,92l-5.88,3.16q-1.32-2.35-3-5.15-26,.59-35.51,1.84l-2.72-6.47q8.53-4,23.67-16.62-15.66.44-22.42,1.4L62.4,63.89c6.62-3,21-16.39,21-16.39H72V7.5h55V118.07c.15,8.14-1.23,13.72-4,16.76s-7.74,4.83-15.29,5.07q-6,.15-15.66.15a36.43,36.43,0,0,0-1.62-7.65,9.58,9.58,0,0,1,1,.07q7.5.37,14.41.37,8.6.07,11.18-2.94c1.86-1.76,2.74-5.76,3-12V47.5H85.12l5.29,2.94q-8.16,6.84-18.09,13.9l21.39-.74q4.12-3.9,7.79-7.72l6.18,3.6a390.45,390.45,0,0,1-32.05,26.1q12.06-.07,23.16-.81-1.1-1.76-3.16-4.85Q94.38,78,93.87,77.27ZM96,98.5h7v26H96v-7H77v23H70v-43h7v14H96Zm-17-85v11h41v-11Zm0,28h41v-11H79Z"/><path class="a" d="M145,26.5h62v7H166.15q0,10.42-.3,25h35.31q-.07,31.07-1.57,59.07-.36,21.36-19.36,20.93-3.86.14-9.93.14a49.46,49.46,0,0,0-2.07-8.5q3.5.36,10.86.36,12.64.86,12.71-13.21,1.43-28,1.64-51.78H166.32q-.44,54.19-18.29,76.76a50.3,50.3,0,0,0-6.64-5.31q11.43-18,14.16-36.06,3.32-17.62,3.54-67.39H145ZM168.71,2.72,175.91,0q5.51,10.81,10.81,22.35l-7.65,2.94Q173.85,12.72,168.71,2.72ZM279.65,56.17Q255.9,37.72,244.73,14.48,232.6,38.23,209.66,57.57a54.92,54.92,0,0,0-6.32-6.47A117.08,117.08,0,0,0,242.6.29l8.6,1.1q-.15.37-.51,1.1-1.18,2.65-1.76,3.82a107.25,107.25,0,0,0,36.47,42.94A61.33,61.33,0,0,0,279.65,56.17Zm-65.21,52.42,5.15-6.32q19,11.4,51.17,32.86L265.31,142Q240.76,124.84,214.44,108.59Zm10.44-41.1L230,61q25.51,14.56,39.77,23.75l-5.59,7Q249.07,81.31,224.88,67.49Z"/><path class="a" d="M295.46,96.46l-2-8.09q14.62-2.43,32.51-5.73V52.5H293v-7h33V20q-15.78,2-26.54,3a25.61,25.61,0,0,0-2.25-7.77Q325,13,355.31,7.6l2.55,7.55q-7,1.33-23.85,3.63V45.5h41.3Q374.07,27,374.07.5h8.22q-.22,24.2.87,45H436v7H383.6q.94,11.32,2.25,20.81,2,14.19,4,22.57a187.3,187.3,0,0,0,28-31.76l6.84,4.48q-17.23,22.79-32.43,35.73a99.8,99.8,0,0,0,5.53,13.23q7.49,15.29,16.65,14.92,6.25.37,8.8-8.9a170.79,170.79,0,0,0,3.85-19.7,36,36,0,0,0,7.49,2.79,132,132,0,0,1-4.51,21.39q-3.64,12.86-15.78,12.65-14.11.22-24.14-20a94.91,94.91,0,0,1-4.44-10.88q-13.82,11.32-36.51,22.94A46.48,46.48,0,0,0,344,126q22.83-11.17,39.05-24.26a187,187,0,0,1-5.24-27.42q-1.45-12.06-2-21.84H334V81.1q18-3.38,29.09-5.73,0,4.19.29,7.72Q352.76,84.92,334,88.82V123q.58,16-14.69,16.4-4.36.29-17,.29a55.1,55.1,0,0,0-1.6-8.45q3.49.37,15.78.44,10,.37,9.53-8.82V90.29Q309.42,93.45,295.46,96.46ZM393.9,14.78l5.88-5.29q13.16,11,24.26,21l-6.32,5.73Q408.09,26.54,393.9,14.78Z"/></svg>
