<svg xmlns="http://www.w3.org/2000/svg" viewBox="0 0 354 35"> <style>path{fill:#fff;}</style><path d="M0,5H9.37Q10,2.92,10.69.25l2.09.31Q12.15,2.73,11.33,5H26V34H24V32H1v2H0ZM1,7v7H24V7Zm0,8v7H24V15Zm0,8v7H24V23Z"/><path d="M35.48,12l-.73,7H42q-.15,5.39-.49,9.25a5.48,5.48,0,0,1-1.31,3.66q-1,1-3.67,1.05l-1.26,0H33.83a18,18,0,0,0-.44-1.89q1.55.1,2.93.1a3.33,3.33,0,0,0,2.35-.61,3.46,3.46,0,0,0,.86-2.32q.3-3.11.4-7.28h-7.2l1-10H41V4H33V2H43V12ZM45,16h9V11H47V2H63v9H55v5h9v9H56v5.59q4.39-.19,6.8-.33-.8-1-2.26-3l1.7-.9q2.5,3.29,5,6.94l-1.72,1q-.3-.47-.88-1.34L64,32.1q-11.63.44-21,1.07l-.36-2.09Q47,31,54,30.7V25H45Zm2,1v6h7V17ZM48,4V9H61V4ZM62,17H55v6h7Z"/><path d="M83.05,35H81.58l2.84-9h1.93Z"/><path d="M118,1h2V12h15v1H120V30h18v2H105V30h13Z"/><path d="M154.07,31.07q3.91.09,10.21.07t11.2-.18a19.21,19.21,0,0,0-.69,2.13q-15.1,0-21-.21-6.62,0-9-4.18a56.94,56.94,0,0,0-4.24,5.15l-1.23-1.55A55,55,0,0,1,144,27.15V15h-4V13h6V27.26Q148,31.16,154.07,31.07ZM146.52,8.4q-1.93-2.9-4.32-6.15l1.48-1q2.09,2.69,4.46,6.08ZM149,17h6.31c0-.31,0-.63,0-1.08a3.12,3.12,0,0,0-.33-1.18V9h-4V7h4V1h2V7h8V1h2V7h5V9h-5v8h7v1h-7V29h-2V18h-7.89s-2.07,8.48-5.57,11.21A15,15,0,0,0,150,27.8a12,12,0,0,0,5.15-9.8H149Zm8-2.27v1.36q0,.51,0,.92h8V9h-8Z"/><path d="M191.05,35h-1.47l2.84-9h1.93Z"/><path d="M212.41,17l-.54-1.85q1.89-.4,5.81-1.33l.32-.08V8h-5V6h5V1h2V6h4V8h-4v5.27q2.3-.57,4.36-1.13,0,1.16,0,1.79-1.1.25-4.39,1.11v5.34q.07,3.55-3.72,3.59L215,24h-1.79a11.46,11.46,0,0,0-.43-1.85q1.57.1,3.07.1,2.22.07,2.15-1.94V15.55l-2.75.72Zm4,9.51,1.78.72q-1.62,3.6-3.53,7l-1.81-.93A52.16,52.16,0,0,0,216.4,26.54Zm5.87,1.05,1.72-.72q1.6,3.13,2.88,5.94l-1.86.76Q223.78,30.6,222.27,27.59ZM226,6h5q0-.86,0-2V1h1.82q0,2.78-.07,5h7.76s0,7.06.11,8.79a34.22,34.22,0,0,0,.47,4.69q.51,2.57,1.76,2.71.91,0,1.27-1.85.39-2.06.58-4.25a15.32,15.32,0,0,0,1.79.62,45.53,45.53,0,0,1-.76,4.54q-.63,2.94-2.83,3Q240,24.08,239.27,20a37.07,37.07,0,0,1-.49-4.62c-.08-1.66-.12-4.31-.12-7.37h-5.91a26.13,26.13,0,0,1-1.16,6.81q1.92,1.2,4.8,3.16l-1.23,1.65q-.72-.49-2-1.44-1.49-1.07-2.2-1.55a20.59,20.59,0,0,1-7.1,8.31,14.65,14.65,0,0,0-1.48-1.58,17.11,17.11,0,0,0,6.94-7.8q-.95-.65-2.94-1.92l-1-.65,1.09-1.44.63.39,2.88,1.81A25.78,25.78,0,0,0,230.86,8H226Zm5.16,21.29,1.72-.76q1.65,3.09,3,5.87L234,33.2Q232.71,30.19,231.16,27.29Zm8.67-.6,1.63-.91q2.37,3.62,4.1,6.49l-1.76,1Q242.1,30.26,239.83,26.7Z"/><path d="M280.8,33.92A54.84,54.84,0,0,1,267,30.4a60.69,60.69,0,0,1-14,4,14.55,14.55,0,0,0-1-1.79,59.2,59.2,0,0,0,12.85-3.22,26.83,26.83,0,0,1-7.72-5.94,34.11,34.11,0,0,1-8,9.16A14.83,14.83,0,0,0,247.9,31C252.37,27.64,258,18,258,18h-9V16h9.64c.18-.56.42-1.31.72-2.33q.23-.77.35-1.16l2,.32c-.33,1.09-.68,2.12-1.05,3.17H282v2H260c-.41.75-.94,1.91-1.58,3H278v2.09a51.94,51.94,0,0,1-8.75,6.26,53.3,53.3,0,0,0,12.48,2.71A19.42,19.42,0,0,0,280.8,33.92ZM250,9h21.73a21.52,21.52,0,0,0,3.81-4.63l1.72.9-.46.6c-1.2,1.59-2.19,2.88-3,3.13H281v5h-2V11H252v3h-2Zm30.33-5.79q-13.57.65-29.83,1-.12-.81-.37-1.81,15.82-.09,29.71-1ZM253.84,5.64l1.51-.84q1.13,1.51,2.57,3.71l-1.63.91Q255,7.32,253.84,5.64ZM275.11,23H258.92a28.56,28.56,0,0,0,8.14,5.63A30.16,30.16,0,0,0,275.11,23ZM263.59,5.16l1.58-.72q1.23,2,2.34,4l-1.69.79Q264.82,7.2,263.59,5.16Z"/><path d="M290.47,1.85l2.11.58q-1.23,3-2.51,5.57H301V0h1V8h14v2H302v9h13v2H302v9h16v2H284V30h16V21H288V19h12V10H289a47.11,47.11,0,0,1-5.15,7.58A17.08,17.08,0,0,0,282.23,16,44.75,44.75,0,0,0,290.47,1.85Z"/><path d="M325.63,16.39q-3.09-2.65-5.77-4.61l1.27-1.48q2.87,2.06,5.94,4.46Zm-4.83,16.77a123.84,123.84,0,0,0,4.54-13q1,.47,2,.86Q325.42,26.38,323,34Zm5.87-25.87q-2.64-2.5-5.43-4.73l1.37-1.39q3.41,2.69,5.54,4.54ZM332,20h9V13H330V11h11V4.41q-3.54.18-10.09.37-.19-1.07-.41-1.88,11.26-.23,22.56-1l.43,1.88Q348.3,4,343,4.3L342,11h12v2H342v7h9V34h-1V32H334v2h-2Zm2,2v9h16V22Z"/></svg>
